<svg xmlns="http://www.w3.org/2000/svg" viewBox="0 0 1490.4 1439.4">
  <style type="text/css">
    
	.st0{fill:none;stroke:#CACAC8;stroke-width:2;stroke-miterlimit:10;}
	.st1{fill:#6D6D6B;}
	.st2{fill:#1082CE;}
	.st3{fill:#F47216;}
	.st4{fill:#2B984C;}
	.st5{fill:#F7BA42;}
	.st6{fill:#FF7939;}
	.st7{font-family:&#39;MyriadPro-Regular&#39;;}
	.st8{font-size:40px;}

  </style>
    <polyline class="st0" points="517.7 1417.7 630.7 1306.7 686.7 1361.7 798.7 1247.7 630.7 1081.7 1186.7 526 1134.7 467.7 1298.7 301.7 1244.7 244.7 1468.7 21.7 "/>
    <polyline class="st0" points="72.7 636 628.5 1192.5 1076.7 748 351.7 23 21.7 22 "/>
    <polyline class="st0" points="854.7 188.7 575.7 469.7 574.7 803.7 406.7 970.7 "/>
    <polyline class="st0" points="1349.7 729.7 1236.7 728.7 1194.7 691.7 1020.7 691.7 "/>
  <circle class="st1" cx="574.9" cy="1361.3" r="11.9"/>
  <circle class="st1" cx="630.9" cy="1308.3" r="11.9"/>
  <circle class="st1" cx="686.9" cy="1358.8" r="11.9"/>
  <circle class="st1" cx="742.1" cy="1305.3" r="11.9"/>
  <circle class="st1" cx="796.4" cy="1250.1" r="11.9"/>
  <circle class="st1" cx="742.1" cy="1193.9" r="11.9"/>
  <circle class="st1" cx="687.3" cy="1024.9" r="11.9"/>
  <circle class="st1" cx="351.8" cy="914.5" r="11.9"/>
  <circle class="st1" cx="463.7" cy="914.5" r="11.9"/>
  <circle class="st1" cx="518.7" cy="857.6" r="11.9"/>
  <circle class="st1" cx="573.1" cy="803.5" r="11.9"/>
  <circle class="st2" cx="575.5" cy="691.5" r="11.9"/>
  <circle class="st2" cx="575.5" cy="579.7" r="11.9"/>
  <circle class="st2" cx="575.5" cy="471.6" r="11.9"/>
  <circle class="st1" cx="630.7" cy="413.6" r="11.9"/>
  <circle class="st1" cx="743" cy="302.4" r="11.9"/>
  <circle class="st1" cx="630.7" cy="302.4" r="11.9"/>
  <circle class="st1" cx="574.3" cy="245.3" r="11.9"/>
  <circle class="st1" cx="517.7" cy="190.4" r="11.9"/>
  <circle class="st1" cx="463.2" cy="134.8" r="11.9"/>
  <circle class="st1" cx="350.7" cy="22" r="11.9"/>
  <circle class="st1" cx="184.3" cy="23" r="11.9"/>
  <circle class="st1" cx="799.1" cy="245.3" r="11.9"/>
  <circle class="st3" cx="742" cy="413.6" r="11.9"/>
  <circle class="st3" cx="793.3" cy="465" r="11.9"/>
  <circle class="st1" cx="845.1" cy="516.2" r="11.9"/>
  <circle class="st1" cx="895.8" cy="566.9" r="11.9"/>
  <circle class="st3" cx="946.9" cy="618.1" r="11.9"/>
  <circle class="st1" cx="1092.5" cy="620.4" r="11.9"/>
  <circle class="st1" cx="1215.5" cy="710.7" r="11.9"/>
  <circle class="st1" cx="1142.1" cy="571.1" r="11.9"/>
  <circle class="st1" cx="1184.6" cy="524.3" r="11.9"/>
  <circle class="st4" cx="1136.8" cy="469.2" r="11.9"/>
  <circle class="st1" cx="1188.6" cy="413" r="11.9"/>
  <circle class="st1" cx="1243.9" cy="357.8" r="11.9"/>
  <circle class="st1" cx="1297" cy="301.4" r="11.9"/>
  <circle class="st1" cx="1299.5" cy="190.4" r="11.9"/>
  <circle class="st1" cx="1355" cy="134.9" r="11.9"/>
  <circle class="st1" cx="1412.1" cy="77.7" r="11.9"/>
  <circle class="st1" cx="1248.1" cy="246.1" r="11.9"/>
  <circle class="st1" cx="239.8" cy="803.5" r="11.9"/>
  <circle class="st1" cx="185.4" cy="747.6" r="11.9"/>
  <circle class="st1" cx="128.9" cy="691.5" r="11.9"/>
  <circle class="st1" cx="463.7" cy="1027.1" r="11.9"/>
  <circle class="st1" cx="296.7" cy="859.6" r="11.9"/>
  <circle class="st1" cx="518.7" cy="1082.9" r="11.9"/>
  <circle class="st1" cx="575.3" cy="1138.4" r="11.9"/>
  <circle class="st1" cx="742.3" cy="1082.9" r="11.9"/>
  <circle class="st1" cx="798.4" cy="1027.1" r="11.9"/>
  <circle class="st3" cx="853.5" cy="970.7" r="11.9"/>
  <circle class="st3" cx="910.3" cy="914.5" r="11.9"/>
  <circle class="st1" cx="965.3" cy="859.7" r="11.9"/>
  <circle class="st1" cx="1021.2" cy="803.9" r="11.9"/>
  <circle class="st1" cx="742.3" cy="970.7" r="11.9"/>
  <circle class="st4" cx="798.5" cy="914.5" r="11.9"/>
  <circle class="st1" cx="854.7" cy="858.2" r="11.9"/>
  <circle class="st1" cx="909.9" cy="802.9" r="11.9"/>
  <circle class="st1" cx="965.9" cy="747.1" r="11.9"/>
  <circle class="st1" cx="685.6" cy="1136.2" r="21.7"/>
  <circle class="st1" cx="518.7" cy="1417.7" r="21.7"/>
    <path class="st5" d="M1042.5 692.1c0-9.2-5.9-17.1-14.2-20v40C1036.5 709.2 1042.5 701.4 1042.5 692.1z"/>
    <path class="st6" d="M1021.2 670.9c-2.5 0-5 0.5-7.2 1.3v40c2.3 0.8 4.7 1.3 7.2 1.3 2.5 0 4.9-0.5 7.1-1.2v-40C1026.1 671.3 1023.7 670.9 1021.2 670.9z"/>
    <path class="st4" d="M999.9 692.1c0 9.2 5.9 17 14.1 20v-40C1005.8 675.1 999.9 682.9 999.9 692.1z"/>
  <circle class="st1" cx="1349.7" cy="732.4" r="21.7"/>
  <circle class="st1" cx="1468.7" cy="21.7" r="21.7"/>
  <circle class="st1" cx="854.7" cy="190.4" r="21.7"/>
    <path class="st2" d="M686.4 379.7c-12 0-21.7-9.7-21.7-21.7 0-12 9.7-21.7 21.7-21.7V379.7z"/>
    <path class="st6" d="M686.4 379.7c12 0 21.7-9.7 21.7-21.7 0-12-9.7-21.7-21.7-21.7V379.7z"/>
  <circle class="st1" cx="21.7" cy="23" r="21.7"/>
  <circle class="st1" cx="71.7" cy="636" r="21.7"/>
  <circle class="st1" cx="408.7" cy="969.7" r="21.7"/>
  <text transform="matrix(1 0 0 1 773.118 418.5647)" class="st7 st8">
    Camille
  </text>
  <text transform="matrix(1 0 0 1 833.2031 470.1703)" class="st7 st8">
    Blandine
  </text>
  <text transform="matrix(1 0 0 1 950.4532 939.0317)" class="st7 st8">
    Celine
  </text>
  <text transform="matrix(1 0 0 1 883.928 991.4379)" class="st7 st8">
    Lidye
  </text>
  <text transform="matrix(1 0 0 1 1176.7445 483.8726)" class="st7 st8">
    Cynthia-Laure
  </text>
  <text transform="matrix(1 0 0 1 460.2242 369.6167)" class="st7 st8">
    harmony
  </text>
  <text transform="matrix(1 0 0 1 961.1548 614.5925)" class="st7 st8">
    Sarah
  </text>
  <text transform="matrix(1 0 0 1 350.6495 595.5701)" class="st7 st8">
    Marjorie
  </text>
  <text transform="matrix(1 0 0 1 432.442 707.3922)" class="st7 st8">
    Anais
  </text>
  <text transform="matrix(1 0 0 1 646.7412 926.3358)" class="st7 st8">
    Katia
  </text>
  <text transform="matrix(1 0 0 1 833.0002 710.703)" class="st7 st8">
    Mélissa
  </text>
  <text transform="matrix(1 0 0 1 339.8081 483.4686)" class="st7 st8">
    alexandra
  </text>
</svg>